<svg width="1292" height="333" viewBox="0 0 1292 333" fill="none" xmlns="http://www.w3.org/2000/svg">
<g clip-path="url(#clip0_4818_3628)">
<path d="M67.8198 299.53C67.8198 295.21 66.2898 291.84 63.2198 289.42C60.1498 287.01 54.7698 284.51 47.0598 281.92C39.3498 279.34 33.0598 276.84 28.1598 274.43C12.2398 266.63 4.27982 255.9 4.27982 242.26C4.27982 235.47 6.25982 229.47 10.2298 224.28C14.1998 219.09 19.8098 215.05 27.0598 212.15C34.3198 209.26 42.4698 207.81 51.5298 207.81C60.3598 207.81 68.2798 209.38 75.2798 212.53C82.2798 215.67 87.7198 220.15 91.6098 225.96C95.4998 231.77 97.4298 238.41 97.4298 245.88H67.9098C67.9098 240.88 66.3798 237.01 63.3098 234.26C60.2398 231.51 56.0998 230.13 50.8698 230.13C45.5798 230.13 41.4098 231.3 38.3398 233.62C35.2698 235.95 33.7398 238.91 33.7398 242.5C33.7398 245.64 35.4298 248.49 38.7998 251.05C42.1698 253.61 48.1098 256.24 56.5998 258.97C65.0898 261.69 72.0698 264.63 77.5198 267.77C90.7898 275.41 97.4298 285.93 97.4298 299.35C97.4298 310.07 93.3798 318.49 85.2798 324.61C77.1798 330.73 66.0698 333.79 51.9498 333.79C41.9898 333.79 32.9798 332.01 24.9098 328.44C16.8398 324.88 10.7598 319.99 6.68982 313.79C2.60982 307.59 0.569824 300.44 0.569824 292.36H30.2698C30.2698 298.93 31.9698 303.77 35.3698 306.89C38.7698 310.01 44.2998 311.56 51.9498 311.56C56.8398 311.56 60.7098 310.51 63.5498 308.4C66.3998 306.31 67.8198 303.35 67.8198 299.53Z" fill="#015081"/>
<path d="M138.18 241L139.11 251.69C145.58 243.44 154.27 239.31 165.18 239.31C176.71 239.31 184.5 243.89 188.55 253.04C194.74 243.89 203.68 239.31 215.38 239.31C233.88 239.31 243.39 250.48 243.9 272.83V332.11H215.38V274.6C215.38 269.94 214.59 266.54 213.02 264.41C211.44 262.28 208.58 261.21 204.41 261.21C198.79 261.21 194.59 263.71 191.84 268.7L191.92 269.88V332.11H163.4V274.76C163.4 269.99 162.64 266.54 161.12 264.4C159.6 262.27 156.7 261.2 152.43 261.2C146.97 261.2 142.81 263.7 139.94 268.69V332.1H111.51V241H138.18Z" fill="#015081"/>
<path d="M311.56 332.119C310.55 330.269 309.65 327.539 308.86 323.949C303.63 330.519 296.32 333.799 286.92 333.799C278.31 333.799 271 331.199 264.98 326.009C258.96 320.819 255.95 314.289 255.95 306.429C255.95 296.549 259.61 289.079 266.92 284.029C274.23 278.979 284.86 276.449 298.81 276.449H307.58V271.629C307.58 263.219 303.95 259.019 296.7 259.019C289.95 259.019 286.58 262.349 286.58 269.009H258.15C258.15 260.209 261.9 253.059 269.41 247.559C276.92 242.069 286.49 239.319 298.14 239.319C309.79 239.319 318.98 242.159 325.73 247.819C332.48 253.489 335.94 261.269 336.11 271.149V311.489C336.22 319.859 337.52 326.259 339.99 330.689V332.119H311.56ZM293.76 313.589C297.3 313.589 300.24 312.829 302.58 311.319C304.91 309.799 306.59 308.089 307.6 306.179V291.609H299.33C289.43 291.609 284.48 296.049 284.48 304.909C284.48 307.489 285.35 309.579 287.1 311.179C288.83 312.789 291.06 313.589 293.76 313.589Z" fill="#015081"/>
<path d="M407.06 266.689L397.7 266.019C388.76 266.019 383.02 268.829 380.49 274.439V332.119H352.06V240.999H378.72L379.65 252.709C384.43 243.779 391.09 239.319 399.65 239.319C402.69 239.319 405.33 239.659 407.58 240.329L407.06 266.689Z" fill="#015081"/>
<path d="M454.64 218.35V241H469.66V260.71H454.64V302.39C454.64 305.82 455.26 308.2 456.5 309.55C457.74 310.9 460.18 311.57 463.84 311.57C466.65 311.57 469.01 311.4 470.93 311.06V331.35C465.81 332.98 460.47 333.79 454.9 333.79C445.11 333.79 437.89 331.49 433.22 326.88C428.55 322.28 426.22 315.29 426.22 305.91V260.69H414.58V241H426.22V218.35H454.64Z" fill="#015081"/>
<path d="M597.79 329.89H584.02L580.75 315.46C575.01 321.99 569.27 326.52 563.53 329.04C557.79 331.56 551.19 332.82 543.73 332.82C534.55 332.82 526.31 331.13 519.03 327.75C511.74 324.37 505.57 319.76 500.52 313.92C495.47 308.08 491.59 301.26 488.9 293.47C486.2 285.68 484.85 277.38 484.85 268.55C484.85 259.85 486.2 251.6 488.9 243.81C491.6 236.02 495.47 229.2 500.52 223.36C505.57 217.52 511.74 212.88 519.03 209.44C526.32 206 534.55 204.29 543.73 204.29C550.38 204.29 556.73 205.18 562.75 206.95C568.78 208.73 574.14 211.36 578.85 214.85C583.55 218.35 587.46 222.73 590.56 228C593.66 233.27 595.61 239.34 596.41 246.21H575.41C574.83 242.2 573.6 238.68 571.71 235.64C569.82 232.61 567.43 230.06 564.57 227.99C561.7 225.93 558.49 224.38 554.93 223.35C551.37 222.32 547.64 221.8 543.74 221.8C537.2 221.8 531.54 223.12 526.78 225.75C522.02 228.39 518.14 231.91 515.16 236.32C512.17 240.73 509.97 245.74 508.53 251.36C507.09 256.97 506.38 262.7 506.38 268.54C506.38 274.38 507.1 280.11 508.53 285.72C509.96 291.33 512.17 296.35 515.16 300.76C518.14 305.17 522.02 308.69 526.78 311.33C531.54 313.97 537.2 315.28 543.74 315.28C549.25 315.4 554.13 314.68 558.37 313.13C562.61 311.58 566.2 309.35 569.13 306.43C572.06 303.51 574.26 299.93 575.76 295.69C577.25 291.45 578.05 286.75 578.17 281.6H545.46V265.28H597.79V329.89Z" fill="#E92429"/>
<path d="M654.079 207.2H676.979L724.319 329.89H701.249L689.719 297.41H640.659L629.129 329.89H606.919L654.079 207.2ZM646.509 281.09H684.039L665.619 228.34H665.099L646.509 281.09Z" fill="#E92429"/>
<path d="M708.479 207.2H807.99V225.76H768.909V329.89H747.39V225.76H708.479V207.2Z" fill="#E92429"/>
<path d="M822.28 207.2H910.77V225.76H843.8V257.89H905.78V275.42H843.8V311.33H911.97V329.89H822.28V207.2Z" fill="#E92429"/>
<path d="M918.68 207.2H940.54L962.75 301.02H963.09L987.88 207.2H1009.92L1034.02 301.02H1034.36L1057.26 207.2H1079.12L1045.21 329.89H1023.35L998.73 236.07H998.39L973.26 329.89H951.05L918.68 207.2Z" fill="#E92429"/>
<path d="M1121.82 207.2H1144.72L1192.06 329.89H1168.99L1157.46 297.41H1108.4L1096.87 329.89H1074.66L1121.82 207.2ZM1114.25 281.09H1151.78L1133.36 228.34H1132.84L1114.25 281.09Z" fill="#E92429"/>
<path d="M1223.05 281.78L1176.91 207.2H1201.87L1234.41 262.19L1266.43 207.2H1290.53L1244.56 281.78V329.89H1223.04V281.78H1223.05Z" fill="#E92429"/>
<path d="M910.76 0.30957H0.580078V168.38H910.76V0.30957Z" fill="white"/>
<path d="M900.22 10.1895H11.1699V158.399H900.22V10.1895Z" fill="#134E88"/>
<path d="M900.22 10.1895H159.33V158.399H900.22V10.1895Z" fill="#184B80"/>
<path d="M206.43 119.369V49.3193H229.52V72.9593H251.13V49.3193H274.22V119.369H251.13V92.1793H229.52V119.369H206.43Z" fill="white"/>
<path d="M310.67 66.6893H316.71C320.95 66.6893 324.13 67.2393 326.2 68.0693C327.63 68.7193 328.83 69.6793 329.93 71.0693C330.9 72.5393 331.68 74.2993 332.23 76.5993C332.78 78.8093 333.01 81.2993 333.01 83.6993C333.01 87.8493 332.46 91.2593 331.26 93.9793C330.06 96.8393 328.4 98.8193 326.19 100.019C324.02 101.219 320.8 101.769 316.47 101.769L310.66 101.859L310.67 66.6893ZM319.61 119.369C325.05 119.369 329.52 118.909 333.25 117.989C336.94 117.069 339.98 115.779 342.33 114.209C344.63 112.689 346.8 110.569 348.74 107.989C350.63 105.359 352.38 101.949 353.72 97.8493C355.01 93.7493 355.7 89.1393 355.7 83.7893C355.7 76.0893 354.23 69.5993 351.28 64.1993C348.24 58.8493 344.14 54.9793 338.93 52.7293C333.68 50.4693 327.46 49.3193 320.17 49.3193H288.19V119.369H319.61Z" fill="white"/>
<path d="M366.25 119.369V49.3193H420.95V66.6493H389.01V77.8493H414.49V94.6193H389.01V119.319H366.24V119.369H366.25Z" fill="white"/>
<path d="M498.18 76.089H476.43C476.02 72.629 474.77 69.869 472.65 67.929C470.53 65.949 467.86 65.069 464.63 65.069C460.53 65.069 457.16 66.679 454.68 69.719C452.1 72.849 450.86 78.019 450.86 85.109C450.86 89.989 451.41 93.729 452.47 96.219C453.58 98.799 455.1 100.639 457.12 101.889C459.01 103.129 461.41 103.729 464.4 103.729C467.9 103.729 470.76 102.809 472.83 100.729C474.9 98.839 476.19 95.979 476.56 92.159H498.73C498.22 96.489 497.35 100.179 496.06 103.129C494.86 106.129 492.7 108.979 489.75 111.979C486.85 115.019 483.25 117.329 479.24 118.939C475.14 120.549 470.48 121.339 465.05 121.339C459.7 121.339 454.73 120.559 450.21 118.939C445.69 117.369 441.82 115.119 438.83 112.259C435.7 109.309 433.3 105.989 431.5 102.209C429.01 96.959 427.86 91.149 427.86 84.649C427.86 79.299 428.69 74.099 430.49 69.529C432.24 64.779 434.73 60.869 437.86 57.639C440.95 54.459 444.31 52.059 448.18 50.499C452.97 48.469 458.23 47.459 464.13 47.459C469.25 47.459 473.99 48.199 478.46 49.719C482.84 51.239 486.52 53.449 489.38 56.359C492.24 59.359 494.45 62.629 496.02 66.409C497.08 69.089 497.77 72.309 498.18 76.089Z" fill="white"/>
<path d="M572.06 65.0793C575.33 65.0793 577.45 65.2193 578.47 65.5393C579.81 65.8593 580.96 66.6893 581.74 67.6593C582.57 68.6693 582.98 69.9193 582.98 71.3493C582.98 73.1493 582.24 74.5793 580.95 75.7293C579.52 76.8393 576.99 77.3393 573.44 77.3393H564.68V65.0393H572.05V65.0793H572.06ZM577.82 119.369C583.26 119.369 587.17 119.089 589.43 118.629C591.64 118.119 593.9 117.289 596.25 116.229C598.51 115.029 600.26 113.879 601.41 112.679C603.21 110.969 604.5 108.989 605.51 106.599C606.48 104.159 606.94 101.389 606.94 98.4393C606.94 94.2493 605.88 90.6993 603.81 87.8893C601.64 85.0293 598.83 83.0993 595.24 82.1293C601.32 78.3093 604.32 73.3693 604.32 67.2893C604.32 61.0693 601.65 56.3193 596.3 53.0993C592.24 50.6093 585.84 49.3193 577.18 49.3193H542.39V119.369H577.82ZM574.13 90.0593C578.69 90.0593 581.64 90.6093 583.12 91.7693C584.5 92.9193 585.29 94.4893 585.29 96.6493C585.29 98.7193 584.55 100.339 583.03 101.529C581.6 102.729 578.61 103.329 574.14 103.329H564.69V90.0093H574.14V90.0593H574.13Z" fill="white"/>
<path d="M657.59 95.8193H642.94L650.18 70.3393L657.59 95.8193ZM636.07 119.369L638.7 110.149H661.7L664.33 119.369H687.33L662.17 49.3193H638.71L613.55 119.369H636.07Z" fill="white"/>
<path d="M696.94 119.369V49.3193H718.37L742.61 86.8293V49.3193H764.68V119.369H742.74L719.01 82.8693V119.369H696.94Z" fill="white"/>
<path d="M780.13 119.369V49.3193H802.43V72.4493L823.31 49.3193H850.36L824.69 75.6793L853.03 119.369H825.43L808.61 91.4893L802.43 97.4793V119.319H780.13V119.369Z" fill="white"/>
<path d="M159.33 10.3096H11.1201V158.37H159.33V10.3096Z" fill="white"/>
<path d="M77.8099 132.479V158.419H11.1699V91.7393H37.0699V132.479H77.8099Z" fill="#E1282C"/>
<path d="M159.33 91.7393V158.419H92.6499V132.479H133.39V91.7393H159.33Z" fill="#E1282C"/>
<path d="M159.33 10.2197V76.8997H133.39V36.2497H92.6499V10.2197H159.33Z" fill="#E1282C"/>
<path d="M77.8099 10.2197V36.2497H37.0699V76.8997H11.1699V10.2197H77.8099Z" fill="#E1282C"/>
<path d="M107.43 62.1299H63.0103V106.6H107.43V62.1299Z" fill="#184B80"/>
</g>
<defs>
<clipPath id="clip0_4818_3628">
<rect width="1291.12" height="332.88" fill="white"/>
</clipPath>
</defs>
</svg>
